{"asset":{"generator":"Khronos glTF Blender I/O v4.4.56","version":"2.0"},"extensionsUsed":["KHR_texture_transform"],"extensionsRequired":["KHR_texture_transform"],"scene":0,"scenes":[{"nodes":[0]},{"nodes":[1]}],"nodes":[{"mesh":0,"name":"tree_small_02_LOD0"},{"mesh":1,"name":"tree_small_02_LOD1"}],"materials":[{"doubleSided":true,"name":"tree_small_02_branches","normalTexture":{"extensions":{"KHR_texture_transform":{"offset":[0,0.40000009536743164],"scale":[3,0.5999999046325684]}},"index":0,"texCoord":1},"pbrMetallicRoughness":{"baseColorTexture":{"extensions":{"KHR_texture_transform":{"offset":[0,0.40000009536743164],"scale":[3,0.5999999046325684]}},"index":1,"texCoord":1},"metallicFactor":0,"metallicRoughnessTexture":{"extensions":{"KHR_texture_transform":{"offset":[0,0.40000009536743164],"scale":[3,0.5999999046325684]}},"index":2,"texCoord":1}}},{"alphaMode":"BLEND","doubleSided":true,"name":"tree_small_02_leaves","normalTexture":{"index":3},"pbrMetallicRoughness":{"baseColorTexture":{"index":4},"metallicFactor":0,"metallicRoughnessTexture":{"index":5}}},{"doubleSided":true,"name":"tree_small_02_trunk","normalTexture":{"index":6},"pbrMetallicRoughness":{"baseColorTexture":{"index":7},"metallicFactor":0,"metallicRoughnessTexture":{"index":8}}}],"meshes":[{"name":"Tree LOD 0","primitives":[{"attributes":{"POSITION":0,"NORMAL":1,"TEXCOORD_0":2,"TEXCOORD_1":3},"indices":4,"material":0},{"attributes":{"POSITION":5,"NORMAL":6,"TEXCOORD_0":7,"TEXCOORD_1":8},"indices":9,"material":1},{"attributes":{"POSITION":10,"NORMAL":11,"TEXCOORD_0":12,"TEXCOORD_1":13},"indices":14,"material":2}]},{"name":"Tree LOD 1","primitives":[{"attributes":{"POSITION":15,"NORMAL":16,"TEXCOORD_0":17,"TEXCOORD_1":18},"indices":19,"material":0},{"attributes":{"POSITION":20,"NORMAL":21,"TEXCOORD_0":22,"TEXCOORD_1":23},"indices":24,"material":1},{"attributes":{"POSITION":25,"NORMAL":26,"TEXCOORD_0":27,"TEXCOORD_1":28},"indices":29,"material":2}]}],"textures":[{"sampler":0,"source":0},{"sampler":0,"source":1},{"sampler":0,"source":2},{"sampler":0,"source":3},{"sampler":0,"source":4},{"sampler":0,"source":5},{"sampler":0,"source":6},{"sampler":0,"source":7},{"sampler":0,"source":8}],"images":[{"mimeType":"image/jpeg","name":"tree_small_02_branch_nor_gl","uri":"textures/tree_small_02_branch_nor_gl_1k.jpg"},{"mimeType":"image/jpeg","name":"tree_small_02_branch_diff","uri":"textures/tree_small_02_branch_diff_1k.jpg"},{"mimeType":"image/jpeg","name":"tree_small_02_branch_rough","uri":"textures/tree_small_02_branch_arm_1k.jpg"},{"mimeType":"image/jpeg","name":"tree_small_02_leaves_nor_gl","uri":"textures/tree_small_02_leaves_nor_gl_1k.jpg"},{"mimeType":"image/jpeg","name":"tree_small_02_leaves_diff-tree_small_02_leaves_alpha","uri":"textures/tree_small_02_leaves_diff_1k.jpg"},{"mimeType":"image/jpeg","name":"tree_small_02_leaves_rough","uri":"textures/tree_small_02_leaves_arm_1k.jpg"},{"mimeType":"image/jpeg","name":"tree_small_02_nor_gl","uri":"textures/tree_small_02_nor_gl_1k.jpg"},{"mimeType":"image/jpeg","name":"tree_small_02_diff","uri":"textures/tree_small_02_diff_1k.jpg"},{"mimeType":"image/jpeg","name":"tree_small_02_rough","uri":"textures/tree_small_02_arm_1k.jpg"}],"accessors":[{"bufferView":0,"componentType":5126,"count":11682,"type":"VEC3","min":[-1.095065951347351,1.6250474452972412,-1.2630820274353027],"max":[1.4185543060302734,4.392509460449219,2.7926673889160156]},{"bufferView":1,"componentType":5126,"count":11682,"type":"VEC3"},{"bufferView":2,"componentType":5126,"count":11682,"type":"VEC2"},{"bufferView":3,"componentType":5126,"count":11682,"type":"VEC2"},{"bufferView":4,"componentType":5125,"count":36000,"type":"SCALAR"},{"bufferView":5,"componentType":5126,"count":219699,"type":"VEC3","min":[-1.3086811304092407,1.4597431421279907,-1.3708226680755615],"max":[1.605745553970337,4.531851768493652,2.88466477394104]},{"bufferView":6,"componentType":5126,"count":219699,"type":"VEC3"},{"bufferView":7,"componentType":5126,"count":219699,"type":"VEC2"},{"bufferView":8,"componentType":5126,"count":219699,"type":"VEC2"},{"bufferView":9,"componentType":5125,"count":540000,"type":"SCALAR"},{"bufferView":10,"componentType":5126,"count":5615,"type":"VEC3","min":[-0.7654515504837036,-0.024031998589634895,-0.39323970675468445],"max":[0.9294251799583435,3.659592866897583,1.9231672286987305]},{"bufferView":11,"componentType":5126,"count":5615,"type":"VEC3"},{"bufferView":12,"componentType":5126,"count":5615,"type":"VEC2"},{"bufferView":13,"componentType":5126,"count":5615,"type":"VEC2"},{"bufferView":14,"componentType":5125,"count":26982,"type":"SCALAR"},{"bufferView":15,"componentType":5126,"count":2689,"type":"VEC3","min":[-1.095065951347351,1.6900122165679932,-1.2115834951400757],"max":[1.3844232559204102,4.271285057067871,2.6014068126678467]},{"bufferView":16,"componentType":5126,"count":2689,"type":"VEC3"},{"bufferView":17,"componentType":5126,"count":2689,"type":"VEC2"},{"bufferView":18,"componentType":5126,"count":2689,"type":"VEC2"},{"bufferView":19,"componentType":5125,"count":6972,"type":"SCALAR"},{"bufferView":20,"componentType":5126,"count":126646,"type":"VEC3","min":[-1.3086811304092407,1.4933466911315918,-1.3684636354446411],"max":[1.586864948272705,4.531851768493652,2.865245819091797]},{"bufferView":21,"componentType":5126,"count":126646,"type":"VEC3"},{"bufferView":22,"componentType":5126,"count":126646,"type":"VEC2"},{"bufferView":23,"componentType":5126,"count":126646,"type":"VEC2"},{"bufferView":24,"componentType":5125,"count":300000,"type":"SCALAR"},{"bufferView":25,"componentType":5126,"count":1855,"type":"VEC3","min":[-0.7654515504837036,-0.024031998589634895,-0.39103877544403076],"max":[0.9294251799583435,3.659592866897583,1.9231672286987305]},{"bufferView":26,"componentType":5126,"count":1855,"type":"VEC3"},{"bufferView":27,"componentType":5126,"count":1855,"type":"VEC2"},{"bufferView":28,"componentType":5126,"count":1855,"type":"VEC2"},{"bufferView":29,"componentType":5125,"count":7494,"type":"SCALAR"}],"bufferViews":[{"buffer":0,"byteOffset":0,"byteLength":140184},{"buffer":0,"byteOffset":140184,"byteLength":140184},{"buffer":0,"byteOffset":280368,"byteLength":93456},{"buffer":0,"byteOffset":373824,"byteLength":93456},{"buffer":0,"byteOffset":467280,"byteLength":144000},{"buffer":0,"byteOffset":611280,"byteLength":2636388},{"buffer":0,"byteOffset":3247668,"byteLength":2636388},{"buffer":0,"byteOffset":5884056,"byteLength":1757592},{"buffer":0,"byteOffset":7641648,"byteLength":1757592},{"buffer":0,"byteOffset":9399240,"byteLength":2160000},{"buffer":0,"byteOffset":11559240,"byteLength":67380},{"buffer":0,"byteOffset":11626620,"byteLength":67380},{"buffer":0,"byteOffset":11694000,"byteLength":44920},{"buffer":0,"byteOffset":11738920,"byteLength":44920},{"buffer":0,"byteOffset":11783840,"byteLength":107928},{"buffer":0,"byteOffset":11891768,"byteLength":32268},{"buffer":0,"byteOffset":11924036,"byteLength":32268},{"buffer":0,"byteOffset":11956304,"byteLength":21512},{"buffer":0,"byteOffset":11977816,"byteLength":21512},{"buffer":0,"byteOffset":11999328,"byteLength":27888},{"buffer":0,"byteOffset":12027216,"byteLength":1519752},{"buffer":0,"byteOffset":13546968,"byteLength":1519752},{"buffer":0,"byteOffset":15066720,"byteLength":1013168},{"buffer":0,"byteOffset":16079888,"byteLength":1013168},{"buffer":0,"byteOffset":17093056,"byteLength":1200000},{"buffer":0,"byteOffset":18293056,"byteLength":22260},{"buffer":0,"byteOffset":18315316,"byteLength":22260},{"buffer":0,"byteOffset":18337576,"byteLength":14840},{"buffer":0,"byteOffset":18352416,"byteLength":14840},{"buffer":0,"byteOffset":18367256,"byteLength":29976}],"samplers":[{"magFilter":9729,"minFilter":9987}],"buffers":[{"uri":"tree-optimized.bin","byteLength":18397232}]}